PathFileType	4	(X/Y/Z)	c:/Users/goper/Files/vsCode/490R/osim_files/C05/C05_Fast_04.trc
DataRate	CameraRate	NumFrames	NumMarkers	Units                	OrigDataRate	OrigDataStartFrame	OrigNumFrames
250.00	250.00	10	36	mm	250.0	1726	2761
                Frame#	Time	LPSIS			LASIS			LTH1			LTH2			LTH3			LTH4			LLFE			LMFE			LSH1			LSH2			LSH3			LSH4			LLMAL			LMMAL			LCAL			LMTP5			LTOE			LMTP1			RPSIS			RASIS			RTH1			RTH2			RTH3			RTH4			RLFE			RMFE			RSH1			RSH2			RSH3			RSH4			RLMAL			RMMAL			RCAL			RMTP1			RTOE			RMTP5		
		X1	Y1	Z1	X2	Y2	Z2	X3	Y3	Z3	X4	Y4	Z4	X5	Y5	Z5	X6	Y6	Z6	X7	Y7	Z7	X8	Y8	Z8	X9	Y9	Z9	X10	Y10	Z10	X11	Y11	Z11	X12	Y12	Z12	X13	Y13	Z13	X14	Y14	Z14	X15	Y15	Z15	X16	Y16	Z16	X17	Y17	Z17	X18	Y18	Z18	X19	Y19	Z19	X20	Y20	Z20	X21	Y21	Z21	X22	Y22	Z22	X23	Y23	Z23	X24	Y24	Z24	X25	Y25	Z25	X26	Y26	Z26	X27	Y27	Z27	X28	Y28	Z28	X29	Y29	Z29	X30	Y30	Z30	X31	Y31	Z31	X32	Y32	Z32	X33	Y33	Z33	X34	Y34	Z34	X35	Y35	Z35	X36	Y36	Z36

1726	6.90000	-150.49504	1021.49341	311.68289	-343.76730	981.73828	384.79181	-258.75467	653.53815	409.09985	-276.33734	593.08893	403.12567	-332.66330	666.21271	422.08081	-339.96591	605.54407	413.74030	-328.52512	496.31476	399.25778	-345.56229	485.49881	276.18774	-156.13638	454.00134	395.57446	-122.03178	426.21381	392.01135	-189.16666	400.95059	413.82855	-149.92381	382.40973	406.96289	51.95374	286.99298	372.73141	23.13180	260.34738	291.57675	99.22980	322.05075	312.77887	53.32051	135.44505	406.98917	9.91340	111.18122	351.06537	28.04171	113.49365	302.96353	-163.89642	1038.01160	203.78746	-361.47647	1008.22137	156.92833	-408.92596	690.00751	112.28236	-426.62411	631.02899	125.87793	-338.47729	662.22443	104.05869	-365.70410	608.03564	120.73497	0.00000	0.00000	0.00000	-430.22583	536.40338	150.03419	-353.06366	377.45538	124.94466	-356.32230	329.68768	130.31088	-413.68445	373.61798	134.27425	-408.69394	327.37167	139.39128	-357.45676	96.43615	172.38205	-376.19662	109.03957	258.17651	-293.22720	68.51519	219.24687	-509.65381	42.68359	253.67580	-530.78058	68.33039	206.26172	-484.22333	37.63714	141.10548
1727	6.90400	-155.84763	1022.69214	311.02792	-348.91144	983.06873	384.73627	-268.21799	654.70929	408.88354	-286.44049	594.50732	403.06186	-341.26007	668.54803	421.95996	-349.81250	607.64105	413.92801	-339.97687	498.43674	399.11115	-357.49100	487.71396	275.96860	-168.53630	455.55118	394.90283	-134.45363	427.63095	391.41110	-201.69884	402.64517	413.48349	-162.48344	384.01663	406.70135	39.02676	287.39377	372.29623	10.09140	260.98666	291.22925	86.45275	321.98926	312.33548	38.94836	136.07745	406.88226	-4.55340	111.97636	351.07953	13.39897	114.13654	302.99854	-169.46941	1039.23987	203.27016	-367.03601	1009.15576	156.76424	-412.87637	690.13892	112.25527	-430.17422	631.20490	125.96181	-341.80280	662.57343	104.09077	-369.17789	608.41010	120.52913	0.00000	0.00000	0.00000	-432.72400	536.23785	149.93045	-354.99573	377.34415	124.39326	-358.04807	329.62262	129.96274	-416.06125	373.17944	134.77533	-410.52780	327.06476	139.30441	-357.60590	96.54615	172.41147	-376.38971	109.07663	258.19736	-293.27921	68.62718	219.26613	-509.71472	42.57877	253.71129	-530.86768	68.12649	206.29340	-484.27594	37.56728	141.08189
1728	6.90800	-161.27768	1023.90686	310.46719	-354.10837	984.48071	384.61316	-277.68137	655.97559	408.74542	-296.49951	596.00421	402.90158	-350.50967	670.68018	422.04471	-359.73056	609.87543	414.01276	-351.42892	500.69629	398.91873	-369.16528	490.09216	275.68631	-180.91725	456.97656	393.97971	-146.93983	428.99643	390.92313	-214.23875	404.36349	413.14548	-174.82448	385.69235	406.55133	26.07167	287.64084	371.94208	-4.00046	261.65408	290.99423	74.17871	321.62375	311.91382	24.33767	136.46332	406.85858	-19.42173	112.81306	351.21509	-1.50091	114.52402	303.12064	-175.07887	1040.43066	202.79979	-372.57217	1010.16779	156.63701	-416.45450	690.10846	112.51470	-433.75626	631.22827	125.95441	-346.52856	662.96576	102.71552	-372.61066	608.67749	120.29791	0.00000	0.00000	0.00000	-435.09756	535.99988	149.72679	-356.98447	377.27298	123.87119	-359.70001	329.55322	129.63864	-417.89359	372.89127	134.77150	-412.05530	326.81448	139.38255	-357.79257	96.64398	172.43748	-376.62726	109.14633	258.19412	-293.36252	68.70387	219.29852	-509.79471	42.49416	253.72548	-531.00031	67.96485	206.30675	-484.30426	37.53448	141.06534
1729	6.91200	-166.65700	1025.15161	309.98953	-359.22498	985.87744	384.49124	-287.00571	657.42419	408.69168	-306.55463	597.59967	402.89850	-359.70621	672.87769	422.04462	-369.86850	612.25403	413.70975	-362.47119	503.49249	398.73212	-380.83655	492.55862	275.38043	-193.19183	458.35068	393.40573	-159.38680	430.16666	390.47733	-226.85822	405.94849	412.81940	-187.55481	387.09296	406.26581	13.12340	287.70227	371.62259	-16.70835	261.83759	290.67523	61.66990	320.99649	311.50003	9.62557	136.63712	406.83350	-34.52246	113.49476	351.24200	-16.57653	114.71887	303.26974	-180.57471	1041.63354	202.33620	-378.05664	1011.12830	156.43094	-420.50806	690.18610	112.00868	-436.92410	631.22742	125.91991	-350.44388	663.27960	102.13477	-375.85349	608.90881	119.97133	0.00000	0.00000	0.00000	-437.46585	535.72131	149.53014	-358.73468	377.20831	123.30189	-361.35318	329.48459	129.31905	-419.13428	372.65430	134.27039	-413.48270	326.55600	139.72186	-357.96735	96.73532	172.42651	-376.81909	109.25186	258.16187	-293.63580	68.87399	219.42284	-509.87872	42.44686	253.70261	-531.11267	67.80045	206.27480	-484.34448	37.47960	141.02522
1730	6.91600	-172.16360	1026.35132	309.53467	-364.24664	987.17566	384.33939	-296.25632	658.90125	408.55905	-316.56519	599.23407	402.81693	-368.78314	675.15851	422.06989	-379.69955	614.60352	413.74686	-374.03995	505.68143	398.54752	-392.53525	495.10968	275.13229	-205.33049	459.63547	392.92569	-171.75307	431.24799	390.10452	-239.31384	407.48969	412.52142	-200.46452	388.18652	405.98651	0.01780	287.54138	371.31042	-29.96162	262.04831	290.12424	49.10098	320.20755	311.20071	-5.27023	136.59409	406.74554	-49.71811	114.03927	351.26651	-31.78419	114.80170	303.33728	-186.08664	1042.77075	202.02963	-383.48386	1012.11389	156.31119	-424.20383	690.18481	111.81374	-440.33521	631.17944	125.79893	-353.68616	663.58313	101.62543	-378.98123	609.13086	119.63955	0.00000	0.00000	0.00000	-439.75067	535.41681	149.33760	-360.30301	377.17783	122.79517	-362.78842	329.45416	128.93648	-420.80893	372.40121	134.14713	-414.87503	326.33044	139.66368	-358.12036	96.83401	172.44351	-377.01157	109.37161	258.13754	-293.63821	68.79375	219.50261	-509.96854	42.41533	253.68539	-531.22864	67.65401	206.26045	-484.40826	37.42375	140.98413
1731	6.92000	-177.56950	1027.52515	309.09875	-369.35654	988.53217	384.15036	-305.52527	660.38123	408.53171	-326.44116	600.93817	402.77423	-377.90308	677.40405	422.10638	-389.21326	616.97485	414.06720	-385.56119	507.83646	398.37012	-403.40726	497.67941	275.01941	-217.43954	460.82144	392.52280	-183.92317	432.28000	389.81613	-252.43228	408.75302	411.50586	-212.93965	389.41754	405.76364	-13.05040	287.15372	371.06171	-44.37365	261.39316	291.05661	36.47963	319.09109	310.93402	-20.34087	136.40773	406.68188	-65.03714	114.29140	351.14185	-47.08017	114.85320	303.21478	-191.60060	1043.89819	201.68832	-388.90524	1012.97772	156.04243	-427.62674	690.07458	111.57004	-443.28690	631.03107	125.64925	-357.12363	663.92725	101.13292	-382.01273	609.38635	119.21235	0.00000	0.00000	0.00000	-441.89594	535.14484	149.07008	-362.09000	377.06290	122.37621	-364.21594	329.33145	128.60887	-422.80539	372.07193	134.49280	-416.19516	326.09406	139.58308	-358.27844	96.88376	172.41676	-377.13489	109.47272	258.07764	-293.65665	68.91778	219.45499	-509.98807	42.37111	253.64149	-531.30835	67.49525	206.20235	-484.44278	37.35962	140.89632
1732	6.92400	-183.01880	1028.68701	308.73337	-375.49139	990.40149	383.96942	-314.68402	661.87360	408.48328	-336.31375	602.63330	402.72815	-386.46683	679.92603	422.24500	-398.82690	619.40808	414.12711	-396.98822	510.11136	398.16751	-410.92758	499.00745	273.73978	-229.39456	461.89920	392.19858	-196.13895	433.06659	389.56116	-264.88104	410.08926	411.24591	-225.42459	390.51498	405.62451	-26.04571	286.64325	370.84845	-57.81046	261.21118	290.83432	23.86587	317.81531	310.77145	-35.46997	136.00040	406.60681	-80.61035	114.47636	351.03784	-62.50751	114.84186	302.94958	-196.97421	1045.01086	201.38977	-394.40994	1013.89771	155.76996	-431.05905	690.55804	111.83190	-446.15009	631.15015	125.96291	-360.42725	664.31207	100.59190	-384.84680	609.57526	118.76389	0.00000	0.00000	0.00000	-443.96185	534.84985	148.80399	-363.55609	377.04651	121.90105	-365.52985	329.27002	128.25424	-424.19101	371.81427	134.35393	-417.39673	325.93585	139.41914	-358.44742	96.94733	172.39880	-377.24127	109.57503	258.03937	-293.66000	69.07330	219.39456	-510.00439	42.30507	253.63075	-531.37738	67.32265	206.13286	-484.41061	37.19797	140.93167
1733	6.92800	-188.53372	1029.75171	308.46490	-380.82025	991.90942	383.81738	-323.96429	663.39661	408.45111	-346.15158	604.38409	402.75986	-395.84137	682.08344	422.16833	-408.54199	621.90704	414.21991	-408.27542	512.54309	397.97095	-422.20700	501.71933	273.50098	-241.27324	462.85703	391.90573	-208.32608	433.71924	389.37674	-277.28613	411.33267	410.99930	-237.98233	391.51477	405.46371	-39.61897	285.67688	370.64536	-71.50867	260.76404	290.68781	10.78544	316.18546	310.61765	-51.14176	135.35490	406.50711	-96.36107	114.50182	351.01627	-78.28133	114.50157	302.90573	-202.50508	1045.96021	201.17940	-399.92294	1014.75446	155.49396	-434.52078	690.28217	111.50484	-449.09155	631.22345	125.59930	-363.60495	664.77069	100.08038	-387.67249	609.76526	118.24407	0.00000	0.00000	0.00000	-445.94263	534.60168	148.46410	-364.87988	376.99936	121.55070	-366.64911	329.32126	127.95204	-425.44302	371.72418	134.07141	-418.51962	325.73471	139.28143	-358.60675	97.01880	172.35550	-377.42111	109.63669	258.01102	-293.72443	69.19586	219.33737	-510.05807	42.24583	253.61960	-531.46558	67.15653	206.08650	-484.42572	37.11261	140.85875
1734	6.93200	-194.01302	1030.81836	308.25507	-386.20062	993.34955	383.57999	-333.10208	664.93860	408.47534	-355.84885	606.13007	402.78690	-405.29999	684.22729	422.32721	-418.16617	624.41364	414.24896	-419.48062	515.04944	397.72000	-433.76071	504.63318	273.25317	-253.13982	463.70261	391.67142	-220.39183	434.27954	389.19626	-289.64960	412.53494	410.77472	-250.56891	392.30771	405.27914	-53.01891	284.59711	370.53629	-85.08492	260.25266	290.49530	-1.68726	314.37027	310.66125	-66.88603	134.54518	406.44214	-112.56528	114.34531	350.59164	-94.12640	114.09850	302.69516	-207.93433	1046.93994	201.02312	-405.38638	1015.66589	155.22241	-437.51291	690.23877	111.24902	-451.66699	631.09827	125.33181	-366.58029	665.26581	99.55924	-390.40433	610.05670	117.77340	0.00000	0.00000	0.00000	-447.92068	534.33521	148.20068	-366.05801	377.06589	121.29422	-367.72208	329.36777	127.70011	-426.62308	371.62128	133.79961	-419.50647	325.63773	139.00436	-358.77478	97.10052	172.36011	-377.60690	109.72272	257.99274	-293.84833	69.30346	219.32538	-510.10800	42.20467	253.62125	-531.58838	66.99603	206.02455	-484.46341	37.04107	140.79390
1735	6.93600	-199.48849	1031.88367	308.01944	-391.76260	994.82037	383.31473	-342.13620	666.49146	408.50531	-365.61874	607.88062	402.81512	-413.71890	686.87622	422.28229	-427.78049	626.97705	414.28250	-430.62433	517.61749	397.49359	-444.91833	507.49265	272.95383	-264.87512	464.44504	391.48492	-232.40657	434.74097	389.03784	-301.95749	413.67313	410.54657	-262.73346	393.22763	405.22046	-66.53333	283.34302	370.42108	-98.57850	259.51959	290.32700	-14.51970	312.29446	310.71661	-82.94739	133.61543	406.37686	-128.69638	114.37892	350.63928	-110.12537	113.44234	302.63986	-213.33029	1047.93542	200.84508	-410.81021	1016.47961	154.94887	-440.84802	689.94458	110.47226	-454.20932	630.98694	125.13692	-369.73871	665.75098	99.05468	-392.86005	610.36304	117.21632	0.00000	0.00000	0.00000	-449.80215	534.22797	147.92192	-367.13776	377.20758	121.06014	-368.56949	329.47647	127.50638	-427.64221	371.54492	133.53784	-420.62585	325.51495	138.54814	-358.90463	97.17153	172.36110	-377.86188	109.80730	257.95026	-293.93640	69.43540	219.32198	-510.19940	42.18334	253.58412	-531.72205	66.86156	205.96658	-484.50974	36.99339	140.75104
